<svg id="Layer_2" data-name="Layer 2" xmlns="http://www.w3.org/2000/svg" viewBox="0 0 177.3 177.3"><defs><style>.cls-1{fill:none;}.cls-2,.cls-4,.cls-5,.cls-6,.cls-7{fill:#f0564e;}.cls-3,.cls-4,.cls-5,.cls-6,.cls-7{isolation:isolate;}.cls-4,.cls-5,.cls-6{font-size:11.45px;}.cls-4,.cls-5,.cls-6,.cls-7{font-family:Raleway-Bold, Raleway;font-weight:700;}.cls-4{letter-spacing:-0.01em;}.cls-6{letter-spacing:-0.06em;}.cls-7{font-size:14.6px;}</style></defs><title>logo_v2</title><path class="cls-1" d="M44.53,40.69a7.29,7.29,0,0,0,2,1.8,7.73,7.73,0,0,0,2.56,1,7.21,7.21,0,0,0,2.74,0,6,6,0,0,0,2.59-1.2,7.57,7.57,0,0,0,2.2-2.8,6.23,6.23,0,0,0,.49-1.68A4.28,4.28,0,0,0,57,36.1l-2.58.36a3.08,3.08,0,0,1,.1,1.17,3.78,3.78,0,0,1-.28,1.06,3.84,3.84,0,0,1-.55.91,4.47,4.47,0,0,1-.72.71A3.61,3.61,0,0,1,51.4,41a4.25,4.25,0,0,1-1.69,0,4.82,4.82,0,0,1-1.61-.69A5.49,5.49,0,0,1,46.8,39a5.75,5.75,0,0,1-.8-1.46,4.82,4.82,0,0,1-.32-1.67A4,4,0,0,1,46,34.22a3.72,3.72,0,0,1,1.17-1.44,4.57,4.57,0,0,1,.84-.51A3.86,3.86,0,0,1,49,32a3.44,3.44,0,0,1,1.08,0,3.65,3.65,0,0,1,1.16.38L52,29.87a5.49,5.49,0,0,0-3.06-.46,6.46,6.46,0,0,0-3.21,1.4,6.81,6.81,0,0,0-2,2.31,6.9,6.9,0,0,0-.43,5.26A7.34,7.34,0,0,0,44.53,40.69Z" transform="translate(-4.89 -5.05)"/><rect class="cls-1" x="56.64" y="24.16" width="2.76" height="14.2" transform="translate(-12.76 27.76) rotate(-29.66)"/><path class="cls-1" d="M93.54,115.9A22.17,22.17,0,1,0,71.37,93.73,22.17,22.17,0,0,0,93.54,115.9Z" transform="translate(-4.89 -5.05)"/><circle class="cls-1" cx="19" cy="75.58" r="3.58"/><path class="cls-1" d="M67.45,34.41,65.69,30l2.53-1,4.45,3.36,2.88-1.14-5-3.77a4,4,0,0,0,1.14-2.2,4.73,4.73,0,0,0-.28-2.59,4.57,4.57,0,0,0-.95-1.46A5.09,5.09,0,0,0,69,20.13a4.69,4.69,0,0,0-1.73-.48,4,4,0,0,0-1.83.29l-5.84,2.31,5.23,13.2Zm-4.34-11,3.11-1.23a1.61,1.61,0,0,1,.72-.1,2,2,0,0,1,.75.22,2.39,2.39,0,0,1,.67.52,2.58,2.58,0,0,1,.49.8,2.84,2.84,0,0,1,.2.89,2.45,2.45,0,0,1-.08.82,1.81,1.81,0,0,1-.35.67,1.46,1.46,0,0,1-.59.43l-3.23,1.3Z" transform="translate(-4.89 -5.05)"/><path class="cls-1" d="M93.53,141.93A48.23,48.23,0,1,0,45.3,93.7h0A48.23,48.23,0,0,0,93.53,141.93ZM64.88,93.86,65,89.62,52.35,86.07A41.92,41.92,0,0,1,85.57,52.57l3.64,12.82,4.24-.09,4.24.09,3.64-12.85A41.92,41.92,0,0,1,134.74,86l-12.82,3.64.09,4.24-.09,4.24,12.74,3.62a41.92,41.92,0,0,1-33.42,33.16l-3.55-12.54-4.24.09-4.24-.09-3.55,12.51a41.92,41.92,0,0,1-33.25-33.18L65,98.12Z" transform="translate(-4.89 -5.05)"/><polygon class="cls-1" points="105.99 23.56 99.01 22.29 99.67 18.65 105.55 19.72 105.96 17.52 100.07 16.45 100.69 13.08 107.5 14.32 107.93 11.94 98.41 10.21 95.86 24.17 105.56 25.94 105.99 23.56"/><path class="cls-1" d="M164.54,74.08a64.25,64.25,0,0,0-4.85-12.66l-1.76,1a64,64,0,0,1,4.62,12.18A6.53,6.53,0,0,1,164.54,74.08Z" transform="translate(-4.89 -5.05)"/><polygon class="cls-1" points="126.42 36.06 129.96 31.37 134.46 34.77 135.81 32.98 131.31 29.58 133.52 26.66 138.93 30.75 140.39 28.82 132.78 23.07 124.22 34.4 126.42 36.06"/><path class="cls-1" d="M24.31,87.19h-.42A6.55,6.55,0,0,1,22.28,87a44.85,44.85,0,0,0,1.43,14l1.93-.53A42.41,42.41,0,0,1,24.31,87.19Z" transform="translate(-4.89 -5.05)"/><polygon class="cls-1" points="94.77 21.56 87.53 21.5 87.61 9.72 84.86 9.7 84.75 23.9 94.75 23.98 94.77 21.56"/><path class="cls-1" d="M75.57,26.57a7.72,7.72,0,0,0,1.81,2,7.22,7.22,0,0,0,2.43,1.26,6,6,0,0,0,2.85.14,7.46,7.46,0,0,0,1.69-.53,7.37,7.37,0,0,0,1.55-.93,6.28,6.28,0,0,0,1.21-1.27,4.28,4.28,0,0,0,.71-1.56l-2.46-.88a3.09,3.09,0,0,1-.45,1.09,3.74,3.74,0,0,1-.74.81,3.81,3.81,0,0,1-.91.55,4.43,4.43,0,0,1-1,.29,3.6,3.6,0,0,1-1.73-.09A4.24,4.24,0,0,1,79,26.69a4.79,4.79,0,0,1-1-1.35,5.49,5.49,0,0,1-.62-1.73,5.74,5.74,0,0,1,0-1.71,4.82,4.82,0,0,1,.49-1.63,4,4,0,0,1,1-1.27,3.73,3.73,0,0,1,1.71-.73,4.55,4.55,0,0,1,1-.06,3.83,3.83,0,0,1,1,.17,3.39,3.39,0,0,1,1,.49,3.66,3.66,0,0,1,.85.87l1.83-1.81a5.5,5.5,0,0,0-2.49-1.83,6.47,6.47,0,0,0-3.49-.25A6.8,6.8,0,0,0,77.43,17a6.9,6.9,0,0,0-2.82,4.46,7.37,7.37,0,0,0,0,2.61A7.27,7.27,0,0,0,75.57,26.57Z" transform="translate(-4.89 -5.05)"/><path class="cls-1" d="M119.41,33.74a6.44,6.44,0,0,0,2.28,1.78,6.55,6.55,0,0,0,2.76.68,6.94,6.94,0,0,0,2.67-.46,7.36,7.36,0,0,0,2.29-1.43,7.17,7.17,0,0,0,1.65-2.21,7.32,7.32,0,0,0,.7-2.59,7.59,7.59,0,0,0-.25-2.7,7,7,0,0,0-1.23-2.43,6.23,6.23,0,0,0-2.28-1.8,6.56,6.56,0,0,0-2.76-.68,7,7,0,0,0-2.68.47,7.54,7.54,0,0,0-2.32,1.43A7.16,7.16,0,0,0,118.6,26a7.51,7.51,0,0,0-.45,5.31A7,7,0,0,0,119.41,33.74ZM120.59,29a5.74,5.74,0,0,1,1.52-3.16,4.84,4.84,0,0,1,1.37-1,3.94,3.94,0,0,1,1.64-.41,4,4,0,0,1,3.17,1.51A3.93,3.93,0,0,1,129,27.4a4.91,4.91,0,0,1,.08,1.73,5.51,5.51,0,0,1-.51,1.73,5.64,5.64,0,0,1-1,1.44,4.86,4.86,0,0,1-1.39,1,3.88,3.88,0,0,1-5.53-2.62A4.75,4.75,0,0,1,120.59,29Z" transform="translate(-4.89 -5.05)"/><path class="cls-1" d="M31,62.38l-1.76-1a64.27,64.27,0,0,0-4.84,12.7,6.53,6.53,0,0,1,2,.47A64.14,64.14,0,0,1,31,62.38Z" transform="translate(-4.89 -5.05)"/><path class="cls-1" d="M165.05,87.21h-.42a42.45,42.45,0,0,1-1.33,13.31l1.93.53a44.86,44.86,0,0,0,1.43-14A6.55,6.55,0,0,1,165.05,87.21Z" transform="translate(-4.89 -5.05)"/><circle class="cls-1" cx="160.16" cy="75.58" r="3.58"/><path class="cls-2" d="M85.66,134.84l3.55-12.51,4.24.09,4.24-.09,3.55,12.54a41.92,41.92,0,0,0,33.42-33.16L121.92,98.1l.09-4.24-.09-4.24L134.74,86a41.92,41.92,0,0,0-33.38-33.45L97.72,65.38l-4.24-.09-4.24.09L85.61,52.57A41.92,41.92,0,0,0,52.35,86L65,89.59l-.09,4.24L65,98.07l-12.56,3.55A41.92,41.92,0,0,0,85.66,134.84ZM93.55,71.5A22.17,22.17,0,1,1,71.38,93.67h0A22.17,22.17,0,0,1,93.54,71.5Z" transform="translate(-4.89 -5.05)"/><path class="cls-2" d="M68.61,26a1.81,1.81,0,0,0,.35-.67,2.45,2.45,0,0,0,.08-.82,2.84,2.84,0,0,0-.2-.89,2.58,2.58,0,0,0-.49-.8,2.39,2.39,0,0,0-.67-.52,2,2,0,0,0-.75-.22,1.61,1.61,0,0,0-.72.1L63.1,23.41l1.69,4.28L68,26.46A1.46,1.46,0,0,0,68.61,26Z" transform="translate(-4.89 -5.05)"/><path class="cls-2" d="M121.37,32.21a3.85,3.85,0,0,0,4.82,1.1,4.86,4.86,0,0,0,1.39-1,5.64,5.64,0,0,0,1-1.44,5.51,5.51,0,0,0,.51-1.73A4.91,4.91,0,0,0,129,27.4a3.93,3.93,0,0,0-.71-1.51,4,4,0,0,0-3.17-1.51,3.94,3.94,0,0,0-1.64.41,4.84,4.84,0,0,0-1.37,1A5.74,5.74,0,0,0,120.59,29a4.75,4.75,0,0,0,.07,1.72A4,4,0,0,0,121.37,32.21Z" transform="translate(-4.89 -5.05)"/><path class="cls-2" d="M59.91,151.47a1.46,1.46,0,0,0-.47-.46l-2.57-1.57L54.72,153l2.66,1.62a1.3,1.3,0,0,0,.63.19,1.64,1.64,0,0,0,.67-.11,2.23,2.23,0,0,0,.63-.38,2.58,2.58,0,0,0,.53-.63,2.34,2.34,0,0,0,.31-.78,2.18,2.18,0,0,0,0-.76A1.77,1.77,0,0,0,59.91,151.47Z" transform="translate(-4.89 -5.05)"/><path class="cls-2" d="M94.28,161a1.74,1.74,0,0,0-.55-.44,1.44,1.44,0,0,0-.63-.17l-3-.06-.1,4.14,3.11.06a1.31,1.31,0,0,0,.64-.15,1.64,1.64,0,0,0,.52-.43,2.22,2.22,0,0,0,.35-.65,2.56,2.56,0,0,0,.14-.81,2.34,2.34,0,0,0-.13-.83A2.15,2.15,0,0,0,94.28,161Z" transform="translate(-4.89 -5.05)"/><path class="cls-2" d="M149.47,135.13a2.56,2.56,0,0,0-.56-.6,2.33,2.33,0,0,0-.74-.4,2.18,2.18,0,0,0-.75-.11,1.73,1.73,0,0,0-.69.17,1.43,1.43,0,0,0-.52.4l-1.87,2.35,3.24,2.58,1.94-2.44a1.33,1.33,0,0,0,.27-.6,1.65,1.65,0,0,0,0-.68A2.23,2.23,0,0,0,149.47,135.13Z" transform="translate(-4.89 -5.05)"/><path class="cls-2" d="M93.53,5.05A88.65,88.65,0,1,0,182.19,93.7,88.65,88.65,0,0,0,93.53,5.05Zm66.16,56.37a64.25,64.25,0,0,1,4.85,12.66,6.53,6.53,0,0,0-2,.47,64,64,0,0,0-4.62-12.18ZM145.28,33.87l-1.46,1.93-5.41-4.09-2.21,2.92,4.5,3.4-1.35,1.79-4.5-3.4-3.54,4.69-2.2-1.66,8.56-11.33Zm-27.39-5.24A7.34,7.34,0,0,1,118.6,26a7.16,7.16,0,0,1,1.66-2.22,7.54,7.54,0,0,1,2.32-1.43,7,7,0,0,1,2.68-.47,6.56,6.56,0,0,1,2.76.68,6.23,6.23,0,0,1,2.25,1.79,7,7,0,0,1,1.23,2.43,7.59,7.59,0,0,1,.25,2.7,7.32,7.32,0,0,1-.7,2.59,7.17,7.17,0,0,1-1.65,2.21,7.36,7.36,0,0,1-2.29,1.43,6.94,6.94,0,0,1-2.67.46,6.55,6.55,0,0,1-2.76-.68,6.44,6.44,0,0,1-2.28-1.78,7,7,0,0,1-1.26-2.41A7.36,7.36,0,0,1,117.89,28.63ZM103.3,15.26,112.82,17l-.43,2.38-6.81-1.24L105,21.5l5.88,1.07-.4,2.2L104.6,23.7l-.66,3.64,7,1.27L110.45,31l-9.7-1.77Zm-13.55-.5h2.76l-.09,11.78,7.24,0V29l-10-.07ZM74.6,21.42A6.9,6.9,0,0,1,77.43,17a6.8,6.8,0,0,1,2.8-1.13,6.47,6.47,0,0,1,3.49.25,5.5,5.5,0,0,1,2.49,1.83l-1.83,1.81a3.66,3.66,0,0,0-.85-.87,3.39,3.39,0,0,0-1-.49,3.83,3.83,0,0,0-1-.17,4.55,4.55,0,0,0-1,.06,3.73,3.73,0,0,0-1.71.73,4,4,0,0,0-1.07,1.3,4.82,4.82,0,0,0-.49,1.63,5.74,5.74,0,0,0,0,1.71A5.49,5.49,0,0,0,78,25.34a4.79,4.79,0,0,0,1.11,1.35,4.24,4.24,0,0,0,1.49.81,3.6,3.6,0,0,0,1.73.09,4.43,4.43,0,0,0,1-.29,3.81,3.81,0,0,0,.91-.55,3.74,3.74,0,0,0,.74-.81,3.09,3.09,0,0,0,.45-1.09l2.46.88a4.28,4.28,0,0,1-.71,1.56A6.28,6.28,0,0,1,86,28.56a7.37,7.37,0,0,1-1.55.93,7.46,7.46,0,0,1-1.69.53,6,6,0,0,1-2.85-.14,7.22,7.22,0,0,1-2.43-1.26,7.72,7.72,0,0,1-1.81-2,7.27,7.27,0,0,1-1-2.54A7.37,7.37,0,0,1,74.6,21.42Zm-9.11-1.51a4,4,0,0,1,1.83-.29,4.69,4.69,0,0,1,1.73.48,5.09,5.09,0,0,1,1.43,1.07,4.57,4.57,0,0,1,.95,1.46,4.73,4.73,0,0,1,.28,2.59,4,4,0,0,1-1.14,2.2l5,3.77-2.88,1.14L68.22,29l-2.53,1,1.75,4.43-2.57,1-5.23-13.2Zm-9.78,4.5,7,12.34-2.4,1.37-7-12.34ZM43,35.74a6.94,6.94,0,0,1,.74-2.63,6.81,6.81,0,0,1,2-2.31A6.46,6.46,0,0,1,49,29.4a5.49,5.49,0,0,1,3.06.46l-.78,2.45A3.65,3.65,0,0,0,50,31.94,3.44,3.44,0,0,0,49,32a3.86,3.86,0,0,0-1,.31,4.57,4.57,0,0,0-.84.51A3.72,3.72,0,0,0,46,34.22a4,4,0,0,0-.34,1.65A4.82,4.82,0,0,0,46,37.54,5.75,5.75,0,0,0,46.8,39a5.49,5.49,0,0,0,1.35,1.25,4.82,4.82,0,0,0,1.61.69,4.25,4.25,0,0,0,1.69,0A3.61,3.61,0,0,0,53,40.27a4.47,4.47,0,0,0,.72-.71,3.84,3.84,0,0,0,.55-.91,3.78,3.78,0,0,0,.28-1.06,3.08,3.08,0,0,0-.1-1.17L57,36.06a4.28,4.28,0,0,1,.1,1.71,6.23,6.23,0,0,1-.49,1.68,7.57,7.57,0,0,1-2.2,2.8,6,6,0,0,1-2.59,1.2,7.21,7.21,0,0,1-2.74,0,7.73,7.73,0,0,1-2.56-1,7.25,7.25,0,0,1-3.25-4.11A7,7,0,0,1,43,35.74Zm50.51,3.59a54.38,54.38,0,1,1-54.36,54.4v0A54.38,54.38,0,0,1,93.53,39.32ZM29.25,61.42l1.76,1A64.14,64.14,0,0,0,26.39,74.6a6.53,6.53,0,0,0-2-.47A64.27,64.27,0,0,1,29.25,61.42ZM20.31,80.63a3.58,3.58,0,1,1,3.58,3.58,3.58,3.58,0,0,1-3.58-3.58ZM23.72,101a44.85,44.85,0,0,1-1.43-14,6.55,6.55,0,0,0,1.61.21h.42a42.41,42.41,0,0,0,1.33,13.31Zm2,29.66,11.13-6.29L38,126.56l-11.13,6.29Zm8.93,13.15,2.46-10.21-6.48,5-1.52-2,10.11-7.82,1.18,1.52-2.56,10.4,6.62-5.12,1.52,2-10.1,7.81Zm6.81,7,7-7.95-3.06-2.71,1.44-1.63,8,7-1.44,1.63-3.06-2.71-7,7.95ZM58.07,157v5.62l-2.38-1.45v-5l-2.09-1.28-2.23,3.66-2.12-1.29,6.66-10.91,4.82,2.94a3.63,3.63,0,0,1,1.2,1.16,4.22,4.22,0,0,1,.59,1.5,4.59,4.59,0,0,1,0,1.61A4.11,4.11,0,0,1,62,155a4.24,4.24,0,0,1-1.71,1.61A3.56,3.56,0,0,1,58.07,157Zm13,10.93L68.74,167v-3.4L64.58,162l-2.24,2.55-2.34-1,9.17-10.15,2,.79Zm14.26-5.73a4.47,4.47,0,0,1-.59,1.49,4.39,4.39,0,0,1-1.06,1.18,4,4,0,0,1-1.42.69,3.64,3.64,0,0,1-1.66,0l-3-.59-.83,4.2-2.44-.48,2.48-12.54,5.31,1a3.64,3.64,0,0,1,1.53.68,4.2,4.2,0,0,1,1.07,1.2,4.61,4.61,0,0,1,.56,1.51,4.11,4.11,0,0,1,.1,1.62Zm9.6,8.8-2.52-4.34H90l-.09,4.28-2.48-.05.26-12.78,5.65.11a3.62,3.62,0,0,1,1.62.4,4.21,4.21,0,0,1,1.27,1A4.59,4.59,0,0,1,97,161a4.14,4.14,0,0,1,.28,1.54,4.26,4.26,0,0,1-.67,2.25,3.58,3.58,0,0,1-1.71,1.43l2.82,4.86Zm6.37-.32L99.3,158l8.61-1.33.33,2.15-6.16,1,.47,3,5.32-.82.31,2-5.32.82.51,3.29,6.31-1,.33,2.15Zm21.22-5.29-8.92-5.53,2.73,7.72-2.34.83-4.26-12,1.82-.64,9.08,5.69-2.79-7.89,2.34-.83,4.25,12Zm6.1-2.75-6.38-11.07,7.55-4.35,1.09,1.89-5.4,3.11,1.54,2.67,4.66-2.68,1,1.75L128,156.65l1.66,2.89,5.54-3.19,1.09,1.89Zm16.76-12.15a5.87,5.87,0,0,1-1.61,2,5.8,5.8,0,0,1-2.32,1.28,4.86,4.86,0,0,1-2.23.06,5.62,5.62,0,0,1-2-.92,9.47,9.47,0,0,1-1.78-1.63l-4.23-5,1.89-1.61,4.23,5a7.79,7.79,0,0,0,1.13,1.08,3.86,3.86,0,0,0,1.26.67,3,3,0,0,0,3.57-1.84,2.9,2.9,0,0,0,.13-1.34,3.9,3.9,0,0,0-.46-1.35,7.61,7.61,0,0,0-.88-1.27l-4.23-5,1.88-1.6,4.23,5a9.34,9.34,0,0,1,1.36,2.08,5.64,5.64,0,0,1,.55,2.18,4.75,4.75,0,0,1-.49,2.24Zm10.42-10.94-5-.62-1.52,1.92,3.35,2.67-1.54,1.94-10-8,3.52-4.42a3.65,3.65,0,0,1,1.3-1,4.26,4.26,0,0,1,1.56-.4,4.63,4.63,0,0,1,1.6.19,4.15,4.15,0,0,1,1.39.72,4.25,4.25,0,0,1,1.38,1.89,3.55,3.55,0,0,1,.1,2.23l5.58.71Zm6.52-10.76a7.62,7.62,0,0,1-.67,1.67,9.6,9.6,0,0,1-1.74,2.29,8.79,8.79,0,0,1-2.28,1.63l-1.36-2a3.51,3.51,0,0,0,.65-.31,8.94,8.94,0,0,0,.93-.63,7.61,7.61,0,0,0,1-.91,5.74,5.74,0,0,0,.84-1.18q1-1.8-.17-2.43a1.09,1.09,0,0,0-.73-.13,2,2,0,0,0-.76.34,6.64,6.64,0,0,0-.85.73l-1,1a11.85,11.85,0,0,1-1.24,1.14,4.19,4.19,0,0,1-1.15.65,2.62,2.62,0,0,1-1.14.15,3.24,3.24,0,0,1-1.22-.41,4,4,0,0,1-1.35-1.14,3.5,3.5,0,0,1-.63-1.48,4.55,4.55,0,0,1,0-1.67,6.15,6.15,0,0,1,.64-1.72,7.08,7.08,0,0,1,1.56-2,9.34,9.34,0,0,1,1.82-1.26l1.25,1.93a3,3,0,0,0-.52.24,5.33,5.33,0,0,0-.76.51,7,7,0,0,0-.8.74,4.56,4.56,0,0,0-.67.93,2.54,2.54,0,0,0-.4,1.53,1.25,1.25,0,0,0,.69.95,1.09,1.09,0,0,0,.67.15,1.62,1.62,0,0,0,.67-.26,4.66,4.66,0,0,0,.75-.63q.4-.41.91-1,.67-.7,1.29-1.24a4.58,4.58,0,0,1,1.25-.79,3,3,0,0,1,1.3-.23,3.44,3.44,0,0,1,1.44.46,3.7,3.7,0,0,1,1.36,1.18,3.27,3.27,0,0,1,.54,1.48,4.54,4.54,0,0,1-.12,1.75Zm2.9-27.8-1.93-.53a42.45,42.45,0,0,0,1.33-13.31H165a6.55,6.55,0,0,0,1.61-.21A44.86,44.86,0,0,1,165.22,101Zm-.17-16.81a3.58,3.58,0,1,1,3.58-3.58,3.58,3.58,0,0,1-3.58,3.58h0Z" transform="translate(-4.89 -5.05)"/><polygon class="cls-2" points="64.11 156.72 64.28 151.4 60.75 155.42 64.11 156.72"/><path class="cls-2" d="M82.69,160.07a1.52,1.52,0,0,0-.46-.5,1.6,1.6,0,0,0-.6-.26l-2.72-.54-.8,4.06,2.83.56a1.42,1.42,0,0,0,1.23-.33,2.31,2.31,0,0,0,.74-1.39,2.5,2.5,0,0,0,0-.88A2.13,2.13,0,0,0,82.69,160.07Z" transform="translate(-4.89 -5.05)"/><g class="cls-3"><text class="cls-4" transform="translate(78.35 84.02)">E</text><text class="cls-5" transform="translate(85.06 84.02)">S</text><text class="cls-6" transform="translate(92.02 84.02)">T</text></g><text class="cls-7" transform="translate(72.4 95.67)">2015</text></svg>